grf
version=1
nRows=19
nColumns=37
inDegrees=no
endheader
time	ground_force_1_vx	ground_force_1_vy	ground_force_1_vz	ground_force_1_px	ground_force_1_py	ground_force_1_pz	ground_moment_1_mx	ground_moment_1_my	ground_moment_1_mz	ground_force_2_vx	ground_force_2_vy	ground_force_2_vz	ground_force_2_px	ground_force_2_py	ground_force_2_pz	ground_moment_2_mx	ground_moment_2_my	ground_moment_2_mz	ground_force_3_vx	ground_force_3_vy	ground_force_3_vz	ground_force_3_px	ground_force_3_py	ground_force_3_pz	ground_moment_3_mx	ground_moment_3_my	ground_moment_3_mz	ground_force_4_vx	ground_force_4_vy	ground_force_4_vz	ground_force_4_px	ground_force_4_py	ground_force_4_pz	ground_moment_4_mx	ground_moment_4_my	ground_moment_4_mz
      2.10000000	      0.00000000	     -0.00000000	      0.00000000	      0.00000000	      0.00000000	      0.00000000	      0.00000000	      0.00000000	      0.00000000	     -1.27566898	     -5.17860031	    -39.55615234	   -233.21588426	   -937.34350891	      0.00000000	      0.00000000	      0.00000000	   -174.13744463	     -6.05864683	      7.42576673	   -592.44525146	   -320.31313769	   -717.40875373	      0.00000000	      0.00000000	     -0.00000000	  -1055.06299787	      0.00000000	     -0.00000000	      0.00000000	      0.00000000	      0.00000000	      0.00000000	      0.00000000	      0.00000000	      0.00000000
      2.11000000	      0.00000000	     -0.00000000	      0.00000000	      0.00000000	      0.00000000	      0.00000000	      0.00000000	      0.00000000	      0.00000000	     -1.25756729	     -5.06220579	    -43.54748154	   -229.91721111	   -938.99591615	      0.00000000	      0.00000000	      0.00000000	     34.72092402	     -5.79265511	      8.13490130	   -591.18103027	   -319.74168596	   -717.93468942	      0.00000000	      0.00000000	     -0.00000000	  -1223.01805350	      0.00000000	     -0.00000000	      0.00000000	      0.00000000	      0.00000000	      0.00000000	      0.00000000	      0.00000000	      0.00000000
      2.12000000	      0.00000000	     -0.00000000	      0.00000000	      0.00000000	      0.00000000	      0.00000000	      0.00000000	      0.00000000	      0.00000000	     -1.67618847	     -4.58081865	    -46.12721634	   -231.39405389	   -930.84513793	      0.00000000	      0.00000000	     -0.00000000	    -74.31360075	     -6.38717615	      8.31112317	   -591.60266113	   -319.35015738	   -718.49896571	      0.00000000	      0.00000000	     -0.00000000	   -861.66064146	      0.00000000	     -0.00000000	      0.00000000	      0.00000000	      0.00000000	      0.00000000	      0.00000000	      0.00000000	      0.00000000
      2.13000000	      0.00000000	     -0.00000000	      0.00000000	      0.00000000	      0.00000000	      0.00000000	      0.00000000	      0.00000000	      0.00000000	     -2.15654707	     -4.12712860	    -52.45496368	   -235.82171741	   -945.54820877	      0.00000000	      0.00000000	     -0.00000000	    -42.74121230	     -6.37869704	      8.09896878	   -592.58215332	   -319.28753056	   -717.86536345	      0.00000000	      0.00000000	     -0.00000000	   -914.27974034	      0.00000000	     -0.00000000	      0.00000000	      0.00000000	      0.00000000	      0.00000000	      0.00000000	      0.00000000	      0.00000000
      2.14000000	      0.00000000	     -0.00000000	      0.00000000	      0.00000000	      0.00000000	      0.00000000	      0.00000000	      0.00000000	      0.00000000	     -2.12113333	     -3.49598670	    -58.27468872	   -237.45289899	   -952.98649207	      0.00000000	      0.00000000	      0.00000000	     13.02207823	     -6.49466049	      8.32899217	   -589.96051025	   -319.14016002	   -718.76081089	      0.00000000	      0.00000000	     -0.00000000	   -930.92212308	      0.00000000	     -0.00000000	      0.00000000	      0.00000000	      0.00000000	      0.00000000	      0.00000000	      0.00000000	      0.00000000
      2.15000000	      0.00000000	     -0.00000000	      0.00000000	      0.00000000	      0.00000000	      0.00000000	      0.00000000	      0.00000000	      0.00000000	     -2.23717928	     -2.93439293	    -62.73004532	   -233.85518743	   -947.56300318	      0.00000000	      0.00000000	      0.00000000	    164.69694435	     -6.35250387	      8.80526761	   -587.72851562	   -318.64608360	   -719.05957375	      0.00000000	      0.00000000	     -0.00000000	   -837.35840149	      0.00000000	     -0.00000000	      0.00000000	      0.00000000	      0.00000000	      0.00000000	      0.00000000	      0.00000000	      0.00000000
      2.16000000	      0.00000000	     -0.00000000	      0.00000000	      0.00000000	      0.00000000	      0.00000000	      0.00000000	      0.00000000	      0.00000000	     -2.93096614	     -2.50862026	    -67.67568970	   -233.33819265	   -955.27807938	      0.00000000	      0.00000000	      0.00000000	    121.52125934	     -6.10111244	      9.23234108	   -584.96429443	   -318.91910354	   -719.34953191	      0.00000000	      0.00000000	     -0.00000000	   -758.10167787	      0.00000000	     -0.00000000	      0.00000000	      0.00000000	      0.00000000	      0.00000000	      0.00000000	      0.00000000	      0.00000000
      2.17000000	      0.00000000	     -0.00000000	      0.00000000	      0.00000000	      0.00000000	      0.00000000	      0.00000000	      0.00000000	      0.00000000	     -3.31642461	     -0.97439653	    -72.02478027	   -230.26917751	   -952.76366166	      0.00000000	     -0.00000000	      0.00000000	   -114.28472052	     -5.35674006	      9.59295106	   -582.16992188	   -319.40928509	   -719.88887798	      0.00000000	      0.00000000	     -0.00000000	   -674.11949191	      0.00000000	     -0.00000000	      0.00000000	      0.00000000	      0.00000000	      0.00000000	      0.00000000	      0.00000000	      0.00000000
      2.18000000	      0.00000000	     -0.00000000	      0.00000000	      0.00000000	      0.00000000	      0.00000000	      0.00000000	      0.00000000	      0.00000000	     -2.91609550	     -0.06130396	    -75.49263763	   -234.19494246	   -954.14212624	      0.00000000	      0.00000000	      0.00000000	    -34.09596168	     -4.69527153	      9.98672220	   -578.73498535	   -320.16625955	   -720.40515145	      0.00000000	      0.00000000	     -0.00000000	   -494.64362078	      0.00000000	     -0.00000000	      0.00000000	      0.00000000	      0.00000000	      0.00000000	      0.00000000	      0.00000000	      0.00000000
      2.19000000	      0.00000000	     -0.00000000	      0.00000000	      0.00000000	      0.00000000	      0.00000000	      0.00000000	      0.00000000	      0.00000000	     -2.98236561	      0.26218680	    -78.42656708	   -234.65456222	   -952.45555491	      0.00000000	      0.00000000	      0.00000000	     37.67854659	     -3.66472702	      9.83117120	   -576.47271729	   -320.82914287	   -720.19117914	      0.00000000	      0.00000000	      0.00000000	   -482.80065730	      0.00000000	     -0.00000000	      0.00000000	      0.00000000	      0.00000000	      0.00000000	      0.00000000	      0.00000000	      0.00000000
      2.20000000	      0.00000000	     -0.00000000	      0.00000000	      0.00000000	      0.00000000	      0.00000000	      0.00000000	      0.00000000	      0.00000000	     -2.65295720	      1.37463236	    -82.68198395	   -231.55616850	   -952.68062781	      0.00000000	      0.00000000	      0.00000000	     66.76694167	     -3.25457245	      9.57185473	   -571.49591064	   -322.19372143	   -721.48684978	      0.00000000	      0.00000000	     -0.00000000	   -227.63534360	      0.00000000	     -0.00000000	      0.00000000	      0.00000000	      0.00000000	      0.00000000	      0.00000000	      0.00000000	      0.00000000
      2.21000000	      0.00000000	     -0.00000000	      0.00000000	      0.00000000	      0.00000000	      0.00000000	      0.00000000	      0.00000000	      0.00000000	     -3.46392941	      2.08693099	    -86.58058929	   -234.21904320	   -952.62043501	      0.00000000	      0.00000000	      0.00000000	     55.10815725	     -2.27351791	      9.53874216	   -569.81542969	   -323.28099989	   -720.73223650	      0.00000000	      0.00000000	     -0.00000000	   -396.47560258	      0.00000000	     -0.00000000	      0.00000000	      0.00000000	      0.00000000	      0.00000000	      0.00000000	      0.00000000	      0.00000000
      2.22000000	      0.00000000	     -0.00000000	      0.00000000	      0.00000000	      0.00000000	      0.00000000	      0.00000000	      0.00000000	      0.00000000	     -3.24393439	      2.52797818	    -89.61071777	   -232.30175550	   -957.34587265	      0.00000000	      0.00000000	      0.00000000	    200.30843164	     -1.53141060	     10.29642779	   -568.65771484	   -323.56333383	   -720.50592412	      0.00000000	     -0.00000000	     -0.00000000	   -339.24570150	      0.00000000	     -0.00000000	      0.00000000	      0.00000000	      0.00000000	      0.00000000	      0.00000000	      0.00000000	      0.00000000
      2.23000000	      0.00000000	     -0.00000000	      0.00000000	      0.00000000	      0.00000000	      0.00000000	      0.00000000	      0.00000000	      0.00000000	     -3.15443945	      3.03043365	    -90.48557281	   -231.43525081	   -945.52898178	      0.00000000	      0.00000000	     -0.00000000	      8.91723468	     -2.31073783	     11.24912081	   -566.21313477	   -323.32112524	   -721.62678898	      0.00000000	      0.00000000	     -0.00000000	   -207.77908788	      0.00000000	     -0.00000000	      0.00000000	      0.00000000	      0.00000000	      0.00000000	      0.00000000	      0.00000000	      0.00000000
      2.24000000	      0.00000000	     -0.00000000	      0.00000000	      0.00000000	      0.00000000	      0.00000000	      0.00000000	      0.00000000	      0.00000000	     -2.90911412	      4.06825161	    -93.00001526	   -231.79908608	   -954.20848244	      0.00000000	      0.00000000	      0.00000000	     63.59494916	     -3.31441255	     11.83130756	   -566.35394287	   -323.17574864	   -720.63944748	      0.00000000	      0.00000000	      0.00000000	     26.97520686	      0.00000000	     -0.00000000	      0.00000000	      0.00000000	      0.00000000	      0.00000000	      0.00000000	      0.00000000	      0.00000000
      2.25000000	      0.00000000	     -0.00000000	      0.00000000	      0.00000000	      0.00000000	      0.00000000	      0.00000000	      0.00000000	      0.00000000	     -2.20403910	      4.18912888	    -95.24433136	   -233.81004232	   -956.71296021	      0.00000000	      0.00000000	      0.00000000	    222.55657266	     -3.25046463	     11.92004695	   -564.10369873	   -322.43844395	   -721.19839032	      0.00000000	      0.00000000	      0.00000000	    142.26206860	      0.00000000	     -0.00000000	      0.00000000	      0.00000000	      0.00000000	      0.00000000	      0.00000000	      0.00000000	      0.00000000
      2.26000000	      0.00000000	     -0.00000000	      0.00000000	      0.00000000	      0.00000000	      0.00000000	      0.00000000	      0.00000000	      0.00000000	     -2.05407262	      4.48102951	    -96.17089081	   -232.70847058	   -952.74941753	      0.00000000	      0.00000000	      0.00000000	    161.71823868	     -4.37540050	     11.89200039	   -563.53076172	   -322.16293378	   -720.90346672	      0.00000000	      0.00000000	      0.00000000	    281.32871356	      0.00000000	     -0.00000000	      0.00000000	      0.00000000	      0.00000000	      0.00000000	      0.00000000	      0.00000000	      0.00000000
      2.27000000	      0.00000000	     -0.00000000	      0.00000000	      0.00000000	      0.00000000	      0.00000000	      0.00000000	      0.00000000	      0.00000000	     -1.63673007	      4.78393316	    -96.29563141	   -230.65546603	   -951.91679978	      0.00000000	      0.00000000	      0.00000000	    208.72711122	     -4.02069804	     11.66102236	   -562.58618164	   -321.85550359	   -720.58915270	      0.00000000	      0.00000000	      0.00000000	    254.94894661	      0.00000000	     -0.00000000	      0.00000000	      0.00000000	      0.00000000	      0.00000000	      0.00000000	      0.00000000	      0.00000000
      2.28000000	      0.00000000	     -0.00000000	      0.00000000	      0.00000000	      0.00000000	      0.00000000	      0.00000000	      0.00000000	      0.00000000	     -1.18901980	      4.63478088	    -96.89262390	   -230.43698987	   -954.26632866	      0.00000000	      0.00000000	      0.00000000	    232.94413690	     -3.60402319	     11.50843350	   -561.07830811	   -321.45914283	   -719.95685769	      0.00000000	      0.00000000	      0.00000000	    411.09581257	      0.00000000	     -0.00000000	      0.00000000	      0.00000000	      0.00000000	      0.00000000	      0.00000000	      0.00000000	      0.00000000
